<?xml version="1.0" encoding="utf-8"?>
<!-- Generator: Adobe Illustrator 27.2.0, SVG Export Plug-In . SVG Version: 6.00 Build 0)  -->
<svg version="1.1" id="Layer_1" xmlns="http://www.w3.org/2000/svg" xmlns:xlink="http://www.w3.org/1999/xlink" x="0px" y="0px"
	 viewBox="0 0 452.04 172.69" style="enable-background:new 0 0 452.04 172.69;" xml:space="preserve">
<style type="text/css">
	.st0{fill:#FFFFFF;}
</style>
<g>
	<path class="st0" d="M10.96,141.38c-2.02,0-5.93,0.45-9.69,0c0.17,5.46,5.46,5.21,11.01,5.7c6.15,0.54,9.51,3.48,9.51,9.85
		c0,6.49-3.36,9.42-9.51,9.96c-2.76,0.24-5.53,0.23-7.79,1.59l-0.22-0.33c1.9-1.33,2.77-2.54,2.77-5.51v-12.5
		c0-0.62,0.13-1.73,0.57-1.99c-3.76,0-6.34,1.64-6.34,5.58h0v18.87c3.76-0.45,7.67,0,9.69,0c7.6,0,13.31-3.54,13.31-11.3v-8.62
		C24.27,145.43,19.22,141.38,10.96,141.38"/>
	<path class="st0" d="M29.95,146.96v23.64c0,0.62-0.13,1.73-0.58,1.99c3.77,0,6.34-1.64,6.34-5.58v-23.64
		c0-0.62,0.13-1.73,0.58-1.99C32.52,141.38,29.95,143.02,29.95,146.96"/>
	<path class="st0" d="M63.03,163.88c0-4.91-3.4-6.07-7.07-6.29v-0.36c4.4-0.27,7.4-1.89,7.4-7.07c0-6.76-4.23-8.78-10.17-8.78
		c-9.56,0-10.69,4.18-10.69,10.1v19.12c0,0.62-0.13,1.72-0.57,1.99c3.77,0,6.34-1.64,6.34-5.58v-17.52c0-2.64,0.79-5.99,4.78-5.99
		c3.55,0,4.77,2.78,4.77,5.99v1.55c0,2.91-1.22,5.35-5.95,5.5v1.75c4.33,0.16,5.4,1.97,5.4,3.54v5.17c0,3.94,2.57,5.58,6.34,5.58
		c-0.45-0.27-0.58-1.37-0.58-1.99V163.88z"/>
	<path class="st0" d="M69.81,146.96v23.64c0,0.62-0.13,1.73-0.58,1.99c3.77,0,6.34-1.64,6.34-5.58v-23.64
		c0-0.62,0.13-1.73,0.58-1.99C72.38,141.38,69.81,143.02,69.81,146.96"/>
	<path class="st0" d="M105.41,141.38c-4.35,0-6.87,1.24-8.33,4.78l-5.1,12.34l-0.36-0.14c0.67-2.03,0.36-3.89-0.27-5.42l-2.8-6.78
		c-1.54-3.72-4.15-4.78-8.44-4.78c0.42,0.15,1.02,0.86,1.45,1.89l6.32,15.07c0.71,1.71,1.58,2.81,2.72,3.52L87,170.54
		c-0.35,0.85-0.87,1.92-1.36,2.05c4.03,0,6.63-1.04,8.19-4.8l10.11-24.52C104.34,142.29,105.02,141.5,105.41,141.38"/>
	<path class="st0" d="M128.42,170.11l-5.14-23.55c-0.84-3.88-3.49-5.19-6.76-5.19c-3.27,0-5.92,1.31-6.76,5.19l-5.14,23.55
		c-0.33,1.52-0.75,2.35-1.15,2.48c3.85,0,6.39-0.79,7.26-4.78l0.36-1.65c0.83-3.82,1.94-6.32,5.42-6.32c3.49,0,4.6,2.5,5.43,6.32
		l0.36,1.65c0.87,3.99,3.41,4.78,7.26,4.78C129.17,172.46,128.75,171.63,128.42,170.11 M116.52,157.73c-1.47,0-2.82,0.12-3.71,0.26
		l2.51-11.76c0.28-1.33,0.74-2.26,1.2-2.82c0.46,0.56,0.92,1.49,1.2,2.82l2.51,11.76C119.37,157.86,117.99,157.73,116.52,157.73"/>
	<path class="st0" d="M150.89,146.96v1.82c0,4.25-3.4,7.44-8.74,7.44h-2.04v-12.85c0-0.62,0.13-1.73,0.57-1.99
		c-3.77,0-6.34,1.64-6.34,5.58v23.64c0,0.62-0.13,1.73-0.58,1.99c3.77,0,6.34-1.64,6.34-5.58v-2.06c0-4.21,3.83-7.44,8.51-7.44h2.26
		v13.08c0,0.62-0.13,1.73-0.58,1.99c3.77,0,6.34-1.64,6.34-5.58v-23.64c0-0.62,0.13-1.73,0.57-1.99
		C153.46,141.38,150.89,143.02,150.89,146.96"/>
	<path class="st0" d="M199.54,170.11l-5.14-23.54c-0.84-3.88-3.49-5.19-6.76-5.19c-3.27,0-5.92,1.31-6.76,5.19l-5.13,23.54
		c-0.33,1.51-0.75,2.35-1.15,2.48c3.85,0,6.39-0.79,7.26-4.78l0.36-1.65c0.83-3.82,1.94-6.32,5.43-6.32c3.49,0,4.6,2.5,5.43,6.32
		l0.36,1.65c0.87,3.99,3.4,4.78,7.26,4.78C200.29,172.46,199.87,171.62,199.54,170.11 M187.65,157.73c-1.47,0-2.82,0.12-3.71,0.26
		l2.51-11.76c0.29-1.33,0.75-2.26,1.2-2.82c0.46,0.56,0.92,1.49,1.2,2.82l2.51,11.76C190.49,157.86,189.11,157.73,187.65,157.73"/>
	<path class="st0" d="M226,163.88c0-4.91-3.4-6.07-7.07-6.29v-0.36c4.4-0.27,7.4-1.89,7.4-7.07c0-6.76-4.23-8.78-10.17-8.78
		c-9.56,0-10.69,4.18-10.69,10.1v19.12c0,0.62-0.13,1.72-0.58,1.99c3.76,0,6.34-1.64,6.34-5.58v-17.52c0-2.64,0.79-5.99,4.78-5.99
		c3.55,0,4.77,2.78,4.77,5.99v1.55c0,2.91-1.22,5.35-5.95,5.5v1.75c4.33,0.16,5.4,1.97,5.4,3.54v5.17c0,3.94,2.57,5.58,6.34,5.58
		c-0.45-0.27-0.58-1.37-0.58-1.99V163.88z"/>
	<path class="st0" d="M235.87,141.72c-3.93,0-5.35,2.56-5.35,6.32c0.27-0.44,1.37-0.58,1.99-0.58h10.67v0.36
		c-2.25,0.32-4.06,1.68-4.06,4.98v17.8c0,0.62-0.13,1.72-0.57,1.99c3.76,0,6.32-1.63,6.32-5.56v-17.02c0-1.6,0.67-2.55,2.37-2.55
		h2.56c3.94,0,5.57-2.56,5.57-6.31c-0.26,0.44-1.37,0.57-1.99,0.57H235.87z"/>
	<path class="st0" d="M276.79,141.71c-3.78,0-6.34,1.64-6.34,5.58v23.31c0,0.62-0.13,1.72-0.57,1.99v0c3.98,0,6.32-1.63,6.32-5.56
		v-3.53c0-2.22-1.56-3.4-3.43-4.63l0.2-0.32c1.22,0.7,2.51,1.14,4.25,1.14h6.17c3.93,0,5.56-1.94,5.56-6.31
		c-0.26,0.44-1.37,0.57-1.98,0.57h-9.73c-2.46,0-4.3-0.95-4.3-3.15c0-2.34,1.84-3.35,4.3-3.35h8.36c3.93,0,5.56-2.16,5.56-6.31
		c-0.26,0.45-1.36,0.57-1.99,0.57H276.79z"/>
	<path class="st0" d="M312.81,146.96v16.68c0,3.99-1.85,6.55-5.79,6.55c-3.83,0-5.74-2.39-5.74-6.55v-16.68
		c0-3.94-2.57-5.58-6.34-5.58c0.45,0.27,0.58,1.38,0.58,2v19.12c0,7.36,4.92,10.1,11.55,10.1c6.7,0,11.51-2.86,11.51-10.1v-19.12
		c0-0.62,0.14-1.73,0.58-2C315.38,141.38,312.81,143.02,312.81,146.96"/>
	<path class="st0" d="M328.1,141.72c-3.93,0-5.35,2.56-5.35,6.32c0.26-0.44,1.37-0.58,1.99-0.58h10.67v0.36
		c-2.25,0.32-4.06,1.68-4.06,4.98v17.8c0,0.62-0.13,1.72-0.57,1.99c3.76,0,6.32-1.63,6.32-5.56v-17.02c0-1.6,0.67-2.55,2.36-2.55
		h2.56c3.93,0,5.57-2.56,5.57-6.31c-0.27,0.44-1.37,0.57-1.99,0.57H328.1z"/>
	<path class="st0" d="M368.95,146.96v16.68c0,3.99-1.85,6.55-5.79,6.55c-3.83,0-5.75-2.39-5.75-6.55v-16.68
		c0-3.94-2.57-5.58-6.34-5.58c0.45,0.27,0.58,1.38,0.58,2v19.12c0,7.36,4.92,10.1,11.56,10.1c6.7,0,11.51-2.86,11.51-10.1v-19.12
		c0-0.62,0.13-1.73,0.58-2C371.52,141.38,368.95,143.02,368.95,146.96"/>
	<path class="st0" d="M401.68,163.88c0-4.91-3.4-6.07-7.07-6.29v-0.36c4.39-0.27,7.4-1.89,7.4-7.07c0-6.76-4.23-8.78-10.17-8.78
		c-9.56,0-10.69,4.18-10.69,10.1v19.12c0,0.62-0.13,1.72-0.58,1.99c3.77,0,6.34-1.64,6.34-5.58v-17.52c0-2.64,0.79-5.99,4.79-5.99
		c3.55,0,4.76,2.78,4.76,5.99v1.55c0,2.91-1.21,5.35-5.95,5.5v1.75c4.33,0.16,5.4,1.97,5.4,3.54v5.17c0,3.94,2.57,5.58,6.34,5.58
		c-0.45-0.27-0.58-1.37-0.58-1.99V163.88z"/>
	<path class="st0" d="M422.09,166.52h-7.95c-2.58,0-4.4-1.24-4.4-3.21c0-2.4,1.82-3.75,4.4-3.75h5.7c3.93,0,5.56-2.03,5.56-6.18
		c-0.26,0.44-1.37,0.44-1.98,0.44h-9.16c-2.58,0-4.08-0.93-4.08-3.13c0-2.35,1.51-3.25,4.08-3.25h7.79c3.93,0,5.56-2.16,5.56-6.31
		c-0.27,0.44-1.37,0.57-1.99,0.57h-11.24c-3.78,0-6.34,1.64-6.34,5.58v5.66c0,1.42,0.49,2.6,1.02,3.56
		c-0.96,1.48-1.45,3.64-1.45,6.67v3.49c0,3.91,2.57,5.58,6.34,5.58h11.72c0.62,0,1.72,0,1.99,0.44
		C427.65,168.54,426.02,166.52,422.09,166.52"/>
	<path class="st0" d="M435.15,148.85c3.71-4.55,16.66,1.66,16.73-7.47c-4.08,0.5-7.36,0-9.93,0c-5.51,0-8.95,1.71-8.95,5.67v5.81
		c0,5.55,14.49,6,17.02,11.62c-1.23,2.38-5.02,2.59-9.17,2.59c-5.67,0-9.36,0.39-9.36,5.52c3.54-0.4,6.45,0,11.24,0
		c4.75,0,9.32-0.93,9.32-5.67v-6.55C452.04,153.91,438.47,154.06,435.15,148.85"/>
	<path class="st0" d="M239.32,17.15c0.65,0.35,1.26,0.68,1.82,0.96c0.64,0.33,1.32,0.86,1.23,1.17c2.98-4.79,2.27-6.16,0.41-7.17
		c-1.7-0.91-2.08-1.12-2.48-1.35c-0.26-0.15-0.51-0.39-0.44-0.55C237.33,14.2,237.4,16.1,239.32,17.15"/>
	<path class="st0" d="M242.74,48.71c2.62,0,6.09-2.28,7.89-6.94c0,0.04,0,0.07-0.01,0.1c0.04-0.14,0.08-0.27,0.12-0.4
		c0.41-1.12,0.71-2.38,0.89-3.76c0.25-1.66,0.28-3.24,0.13-4.8c0.35,2.97,2.21,5.77,6.01,5.77l5.7,0.01h4.63h1.05h5.68h0h5.68h5.83
		h0h1.43h4.24h8.64h0h3.42h5.68h8.54h7.18h0h5.67h5.68v0h1.17v0h5.67h5.68h5.68h0h5.68h5.67h5.68h25c2.54,0,4.66-0.63,6.35-1.76
		c-0.08,0.07-0.16,0.14-0.23,0.2c0.7-0.43,1.34-0.98,1.91-1.63c0.04-0.04,0.07-0.08,0.11-0.12c1.04-1.21,1.81-2.76,2.16-4.55
		c0.01-0.07,0.04-0.12,0.05-0.19c0,0-0.01,0.01-0.02,0.01c0.12-0.64,0.2-1.31,0.2-2.01c0-4.17-4.14-7.38-14.73-7.38
		c-5.96,0-9.4,0.04-13.54,0.04c-1.33,0-2.28-0.24-2.87-0.71c1.94-1.21,5.65-2.44,12.43-4.89c3.1-1.12,4.22-3.02,4.25-5.22
		c0.02-1.77,0.1-3.47,0.47-4.64c-6.44,3.82-13.09,7.12-16.73,10.62c0.03-0.03,0.05-0.06,0.08-0.1c-0.09,0.09-0.25,0.24-0.42,0.41
		c-0.02,0.02-0.04,0.04-0.06,0.06c-0.48,0.48-1.15,1.21-1.66,2.17c-0.03,0.04-0.04,0.09-0.07,0.14c-0.13,0.25-0.25,0.52-0.35,0.8
		c-0.06,0.17-0.11,0.35-0.15,0.53c-0.04,0.17-0.07,0.34-0.1,0.51c-0.03,0.18-0.05,0.36-0.06,0.55c0,0.07-0.02,0.13-0.02,0.2
		c0,0.22,0.04,0.44,0.07,0.66c0.01,0.06,0.01,0.11,0.02,0.16c0.07,0.4,0.18,0.79,0.36,1.17c0,0.01,0,0.02,0.01,0.04v-0.01
		c0.88,1.86,3.1,3.37,7.28,3.37h10.98c4.92,0,10.64,1.24,11.94,4.46c-2.23,0.53-4.51,0.56-5.66,0.54h-27.02v-0.01h-5.68h-5.67h-5.68
		h0h-5.68h-5.68h-5.67h-1.17h-5.68h-5.67h0h-7.18h-8.54h-5.68h-3.42h0h-8.64h-4.24h-1.43h0h-5.83h-5.68h0h-5.68h-1.05h-4.63
		l-5.7-0.02c-4.73,0.02-6.13-0.9-6.32-1.27c0.01,0.03,0.01,0.05,0.01,0.09c-0.67-3.3-2.17-6.53-4.35-10.09
		c-1.11,2.31-3.33,3.3-3.33,5.71c0,3.27,4.61,5.86,6.29,10.57c-2.51,4.16-6.85,5.15-9.05,5.45c-2.39,0.32-5.35,0.16-7.13-0.43
		C235.39,45.1,238.82,48.71,242.74,48.71"/>
	<path class="st0" d="M413.7,48.71c2.62,0,6.09-2.28,7.89-6.94c0,0.04,0,0.07-0.01,0.1c0.05-0.14,0.08-0.26,0.12-0.4
		c0.4-1.12,0.71-2.38,0.89-3.77c0.25-1.67,0.28-3.26,0.13-4.82c0.34,2.98,2.2,5.81,6.01,5.81h5.7c7.44,0,6.4-11.86,11.33-11.86
		c1.88-0.05,3.95,1.37,4.73,4.48c-1.15,1.82-3.14,2.65-5.3,2.65c-2.29,0-3.91-0.18-4.4-0.62c-0.14,3.91,1.66,6.13,4.92,6.13v0
		c2.36,0,3.92-1.15,4.91-2.78c0,0.02,0,0.04-0.01,0.06c0.02-0.05,0.04-0.1,0.06-0.15c1.68-2.86,1.61-7.13,0.85-9.27v0.02
		c-1.09-3.99-3.85-6.99-6.41-7.1c-3.74-0.13-5.99,5-7.87,9.42c-0.5,1.18-1.77,2.44-2.81,2.44v0l-5.7-0.02
		c-4.73,0.02-6.13-0.9-6.32-1.27c0.01,0.03,0.01,0.06,0.01,0.09c-0.66-3.3-2.17-6.53-4.35-10.09c-1.11,2.31-3.33,3.3-3.33,5.71
		c0,3.27,4.61,5.86,6.29,10.57c-2.51,4.16-6.85,5.15-9.05,5.45c-2.39,0.32-5.35,0.16-7.13-0.43
		C406.35,45.1,409.78,48.71,413.7,48.71"/>
	<path class="st0" d="M16.02,111.76c0.15-0.06,0.29-0.13,0.43-0.2c0.22-0.11,0.44-0.23,0.66-0.35c0.18-0.1,0.35-0.2,0.52-0.31
		c0.17-0.11,0.32-0.23,0.48-0.35c0.33-0.24,0.63-0.5,0.93-0.78c0.13-0.12,0.25-0.23,0.37-0.36c0.16-0.17,0.31-0.35,0.46-0.54
		c0.11-0.14,0.23-0.28,0.34-0.43c0.14-0.19,0.27-0.38,0.4-0.58c0.1-0.16,0.2-0.33,0.3-0.5c0.12-0.2,0.24-0.41,0.35-0.63
		c0.09-0.17,0.17-0.36,0.25-0.55c0.2-0.45,0.38-0.92,0.55-1.4c0.06-0.17,0.12-0.33,0.17-0.51c0.09-0.29,0.16-0.59,0.24-0.89
		c0.05-0.18,0.09-0.36,0.13-0.55c0.07-0.32,0.13-0.64,0.19-0.98c0.02-0.09,0.04-0.18,0.06-0.28c0,0-0.01,0.01-0.01,0.01
		c0.52-3.15,0.53-6.85,0.13-10.99c-1.2-12.54-3.01-20.62-2.12-21.59c-3.46,1.07-4.6,4.04-4.6,9.47c0,6.33,1.77,16.54,1.77,23.06
		c0,0.96-0.05,1.85-0.11,2.72c-2.45,0.93-5.1,1.46-7.48,1.46c-4.91,0-7.98-2.19-7.98-6.64c0-1.34,0.31-2.79,0.92-4.23
		C1.18,98.24,0,101.24,0,104.05c0,3.65,1.77,8.89,9.55,8.89C12.05,112.93,14.2,112.54,16.02,111.76"/>
	<path class="st0" d="M89.79,86.34c-1.57,0.81-5.36,0.31-5.9,3.24c-0.33,1.8,1.08,3.93,1.48,7.15c-1.18,0.18-2.42,0.19-3.71,0.19
		l-0.15,0h-5.52h-5.68h-5.68h0h-3.42h-3.42h0h-2.75h0H44.86h-5.68h0h-4.25l-5.7,0c-3.89,0.02-5.99-1.3-5.99-1.3
		c0,5.55,2.24,7.82,5.88,7.87v0.01h5.8h4.25h0h5.68h10.18h0h2.75h0h3.42h3.42h0h5.68h5.68h5.51h0h0.16v-0.01
		c1.24-0.03,2.38-0.4,3.19-0.98c0,0.01,0,0.02-0.01,0.04c0.05-0.04,0.1-0.09,0.16-0.14c1.3-1,2.13-2.56,2.71-4.12
		c0.01-0.02,0.02-0.04,0.03-0.07c0.05-0.15,0.1-0.29,0.15-0.43c0.24-0.69,0.45-1.4,0.63-2.13c0-0.01,0.01-0.03,0.01-0.04
		C89.33,92.27,89.57,88.64,89.79,86.34"/>
	<path class="st0" d="M86.6,105.21c-2.52,3.99-2.44,5.88-0.52,6.94c0.65,0.36,1.26,0.67,1.82,0.96c0.64,0.33,1.32,0.86,1.23,1.17
		c2.98-4.79,2.27-6.16,0.4-7.17c-1.69-0.91-2.08-1.13-2.48-1.35C86.79,105.61,86.54,105.37,86.6,105.21"/>
	<path class="st0" d="M98.73,72.43c-0.26-0.15-0.51-0.39-0.45-0.55c-2.52,3.99-2.44,5.88-0.53,6.93c0.65,0.36,1.26,0.68,1.82,0.96
		c0.64,0.33,1.33,0.86,1.23,1.17c2.98-4.79,2.27-6.16,0.4-7.16C99.52,72.87,99.13,72.66,98.73,72.43"/>
	<path class="st0" d="M108.62,73.79c-1.69-0.91-2.08-1.12-2.48-1.35c-0.26-0.15-0.51-0.39-0.44-0.55c-2.52,3.99-2.45,5.89-0.53,6.94
		c0.65,0.36,1.26,0.68,1.82,0.97c0.64,0.33,1.32,0.86,1.23,1.17C111.19,76.16,110.48,74.79,108.62,73.79"/>
	<path class="st0" d="M116.47,83.63c0.65,0.36,1.26,0.68,1.82,0.96c0.64,0.33,1.32,0.86,1.22,1.17c2.98-4.79,2.27-6.16,0.41-7.16
		c-1.69-0.92-2.08-1.13-2.48-1.36c-0.26-0.15-0.51-0.39-0.45-0.55C114.47,80.68,114.54,82.58,116.47,83.63"/>
	<path class="st0" d="M123.87,83.63c0.65,0.36,1.26,0.68,1.82,0.96c0.64,0.33,1.32,0.86,1.22,1.17h0c2.98-4.79,2.27-6.16,0.41-7.16
		c-1.7-0.92-2.08-1.13-2.48-1.36c-0.26-0.15-0.51-0.39-0.45-0.55C121.88,80.68,121.95,82.58,123.87,83.63"/>
	<path class="st0" d="M138.21,86.34c-1.58,0.81-5.21,0.31-5.76,3.24c-0.33,1.78,1.18,3.92,1.54,7.06c-1.47,0.26-3.14,0.28-4.12,0.28
		c-3.83-0.02-5.91-0.73-6.37-1.22c0.86-3.32,1.03-6.96,1.25-9.19c-1.56,0.8-5.31,0.3-5.85,3.21c-0.31,1.69,0.85,4.03,1.09,6.98
		c-1.92,0.24-4.02,0.22-5.45,0.22h-4.88c0.02-0.03,0.03-0.05,0.05-0.07c0.06-0.09,0.13-0.18,0.18-0.27c0.13-0.22,0.25-0.46,0.36-0.7
		c0.1-0.21,0.2-0.42,0.29-0.63c0.06-0.17,0.12-0.33,0.18-0.5c0.3-0.89,0.48-1.83,0.48-2.82c-0.01,0.01-0.02,0.02-0.02,0.03
		c0.01-0.16,0.03-0.29,0.03-0.45c0-4.11-2.04-8.48-6.73-8.48c-2.83,0-6.19,3.28-6.98,7.41c0,0,0,0,0,0c0,0.02,0,0.04-0.01,0.07
		c-0.07,0.39-0.11,0.78-0.14,1.18c-0.01,0.14-0.02,0.28-0.02,0.41c0,0.05-0.01,0.09-0.01,0.14c0,0.07,0.01,0.12,0.01,0.19
		c0,0.44,0.03,0.87,0.09,1.3c0.01,0.08,0.03,0.16,0.04,0.24c0.06,0.33,0.12,0.65,0.21,0.97c0.06,0.21,0.13,0.4,0.19,0.6
		c0.06,0.15,0.11,0.3,0.17,0.45c0.14,0.32,0.28,0.6,0.43,0.85c0.02,0.04,0.03,0.08,0.06,0.11h-4.19l-1.23,0
		c-3.71,0-4.57-1.31-4.57-1.31c-0.08,0.46-0.04,0.7-0.23,1.86c-0.48,3.06,0.81,6.02,5.17,6.02v0h0.87v0h1.19
		c3.05,0,6.05-0.69,8.6-1.93c2.8,1.24,6.34,1.93,10.42,1.93c1.85,0,3.29-0.37,4.43-0.96c0,0-0.01,0.01-0.01,0.02
		c0.07-0.04,0.12-0.08,0.19-0.11c0.17-0.09,0.33-0.19,0.49-0.29c0.12-0.08,0.24-0.15,0.35-0.24c1.78-1.34,2.63-3.3,3.16-5.04
		c0.12-0.36,0.22-0.72,0.32-1.08c-0.07,0.43-0.12,0.91-0.22,1.75c-0.35,3.04,1.77,5.94,6.68,5.96v0h0.03h0.03v0
		c1.23-0.01,2.34-0.43,3.22-1.12c0,0.01-0.01,0.02-0.01,0.04c0.07-0.06,0.13-0.13,0.2-0.19c0.17-0.14,0.33-0.29,0.48-0.45
		c0.03-0.03,0.06-0.05,0.08-0.08c0.21-0.23,0.41-0.47,0.61-0.74c0.03-0.04,0.06-0.09,0.09-0.13c0.15-0.21,0.29-0.43,0.43-0.66
		c0.04-0.07,0.09-0.14,0.13-0.22c0.13-0.24,0.26-0.48,0.39-0.73c0.08-0.16,0.16-0.33,0.23-0.5c0.04-0.1,0.09-0.21,0.14-0.32
		c0.12-0.28,0.23-0.57,0.33-0.86c0.05-0.15,0.11-0.3,0.16-0.46c0.04-0.12,0.08-0.25,0.12-0.38c0.12-0.38,0.23-0.76,0.33-1.14
		c0,0-0.01,0-0.01,0.01C137.76,92.26,137.98,88.68,138.21,86.34 M104.56,96.32c-2.47-0.82-4.5-2.39-5.81-3.95
		c0.93-1.92,2.91-3.53,4.7-3.53c2.53,0,4.55,2.57,5.41,5.19C107.59,95,106.14,95.8,104.56,96.32"/>
	<path class="st0" d="M173.35,101.56c0-0.02,0-0.04-0.01-0.07c0.99,1.62,2.55,2.78,4.91,2.78l0,0c3.25,0,5.05-2.22,4.92-6.13
		c-0.49,0.44-2.11,0.62-4.4,0.62c-2.17,0-4.15-0.83-5.3-2.65c0.78-3.1,2.86-4.52,4.73-4.47c4.92,0,3.89,11.85,11.32,11.86h5.68h0
		h0.72c9.04,0,12.25-6.43,10.87-17.76c-1.31-10.8-2.19-16.1-1.46-17.22c-5.86,1.51-5.35,11.09-4.13,19.06
		c0.44,2.89,0.63,5.64,0.51,8.02c-0.9,0.79-3.91,1.33-5.79,1.32v0h-0.72h0h-5.66c-1.04,0-2.32-1.26-2.81-2.44
		c-1.88-4.43-4.14-9.55-7.87-9.42c-2.55,0.1-5.31,3.1-6.4,7.09c0,0,0,0,0-0.01c-0.31,0.88-0.51,2.13-0.51,3.5
		c-0.08,0.06-1.69,1.28-4.88,1.28h-1.19c-2.54,0-4.3-2.33-4.88-6.17c-0.25-5.42-1.19-8.1-1.19-8.1c-0.63,1.68-4.47,2.41-4.47,5.69
		c0,2.16,2.36,5,3.45,8.31c-1.27,0.33-2.81,0.47-4.26,0.47c-1.21,0-4.18-0.18-5.7-1.53c-0.01,0-0.01,0.01-0.02,0.01
		c0.82-3.34,1.06-6.89,1.29-9.25c-1.58,0.81-5.21,0.3-5.76,3.24c-0.33,1.78,1.18,3.9,1.63,7.06c-1.42,0.32-2.59,0.26-3.61,0.25
		c-1.21-0.02-3.87,0.04-5.4-1.32c0.34,3.37,0.42,8.29,5.38,8.29c1.19,0,2.2-0.51,3.06-1.34c0,0.01,0,0.02-0.01,0.03
		c0.05-0.05,0.09-0.11,0.14-0.16c0.16-0.16,0.31-0.33,0.46-0.51c0.04-0.04,0.08-0.09,0.11-0.13c0.16-0.21,0.32-0.43,0.47-0.66
		c0.84-1.27,1.46-2.79,1.93-4.39c0.11-0.37,0.22-0.75,0.32-1.11c0,3.19,0.15,8.28,5.79,8.27h0c1.21,0,3.31-0.35,4.24-1.5
		c0,0,0-0.01,0.01-0.01c0,0,0,0.01,0,0.01c0.83-0.84,1.35-2.04,1.67-3.3c0.02-0.06,0.03-0.13,0.05-0.19
		c0.01-0.02,0.01-0.05,0.02-0.08c0.24-0.9,0.4-1.95,0.43-3.21c0,0,0,0,0,0c0.05-0.97,0.04-1.76,0.04-2.17c0-0.56-0.01-1.1-0.02-1.62
		c0.19,5.1,0.48,11.68,4.83,11.71h0.02h0h0h0.36c4.47,0,5.63-4.38,5.72-7.5c0.04,1.83,0.43,3.83,1.35,5.4
		C173.31,101.45,173.32,101.5,173.35,101.56"/>
	<path class="st0" d="M210.79,104.13c4.55-1,7.57-6.42,6.2-17.73c-1.31-10.78-2.22-16.06-1.47-17.26c-4.73,1.32-5.79,7.34-4.1,19.1
		C212.32,94.56,212.42,103.78,210.79,104.13"/>
	<path class="st0" d="M244.35,83.25c-0.26-0.15-0.51-0.39-0.45-0.55c-2.52,3.99-2.44,5.88-0.52,6.94c0.65,0.35,1.26,0.67,1.82,0.96
		c0.64,0.33,1.32,0.86,1.22,1.17c2.98-4.79,2.27-6.16,0.41-7.16C245.14,83.69,244.75,83.48,244.35,83.25"/>
	<path class="st0" d="M254.1,87.75c-1.2,2.01-4.44,2.91-4.44,5.79c0,3.2,3.62,4.65,5.16,10.61c-4.98,2.73-12.27,3.72-15.8,0.93
		c-2.41-1.9-2.86-5.6-1.29-9.29c-2.41,3.18-3.36,6.41-3.36,9.58c0,5.59,3.94,8.41,9.09,8.41c7.67,0,10.64-3.61,11.86-6.86
		c0,0.01,0,0.02,0.01,0.03c0.03-0.1,0.05-0.19,0.09-0.29c0.29-0.82,0.47-1.61,0.59-2.31c0.01-0.05,0.02-0.1,0.03-0.15
		c0.04-0.22,0.06-0.42,0.09-0.62C257,97.54,255.13,91.2,254.1,87.75L254.1,87.75z"/>
	<path class="st0" d="M273.05,107.13v0.02c0.02-0.04,0.04-0.08,0.06-0.12c0.11-0.19,0.22-0.4,0.32-0.6
		c0.12-0.22,0.24-0.44,0.34-0.66c0.02-0.03,0.03-0.07,0.05-0.11c0.38-0.82,0.68-1.62,0.89-2.43c0.02-0.06,0.03-0.12,0.04-0.19
		c0.08-0.3,0.15-0.61,0.21-0.92c0.21-1.04,0.34-2.13,0.34-3.27c0.02-0.59,0.04-1.2,0.04-1.85c0-10.79-5.13-12.01-7.11-12.07
		c-2.7-0.08-5.72,1.54-6.75,6.43c0-0.02,0-0.04,0-0.07c-0.14,0.65-0.23,1.31-0.29,2.05c-0.02,0.22-0.03,0.45-0.04,0.68
		c-0.01,0.17-0.02,0.35-0.03,0.53c-0.01,0.23-0.01,0.47-0.01,0.71c0,0.13-0.01,0.24-0.01,0.38c0,0.29,0.01,0.57,0.04,0.83
		c0,0.04,0,0.08,0,0.13V96.6c0.38,4.82,3.66,6.11,6.91,6.11c1.53,0,4.79-1.05,4.47-5.51c0.43,1.48,0.71,3.25,0.75,5.35
		c-2.6,2.98-6.95,4.37-11.44,4.37c-1.42,0-3.84-0.25-5.19-0.63c1,2.42,3.89,6.65,8.43,6.65v0
		C267.67,112.94,270.92,110.72,273.05,107.13 M262.28,94.11c0.92-1.58,2.42-3.33,4.54-3.33c1.5,0,4.33,1.71,5.69,6.38
		C267.38,97.16,263.79,96.32,262.28,94.11"/>
	<path class="st0" d="M404.5,95.61L404.5,95.61c0.81-3.34,1.05-6.97,1.27-9.28c-1.58,0.81-5.36,0.31-5.9,3.24
		c-0.33,1.8,1.08,3.93,1.48,7.15c-1.18,0.18-2.63,0.19-3.91,0.19h-5.47h0h-5.68h-5.67h0h-6.74h-5.68h-5.67h-5.68h-5.68h-5.67h0
		h-5.68h-3.64h-2.04h0h-1.17h-5.68h0h-5.67h-10.05h0h-4.96h-5.68h-2.06h-6.81h-5.67h0h-5.66c-3.26,0-5.18-0.86-5.41-1.28
		c0.36,5.31,2.03,7.85,5.39,7.86h0.02h5.65h0h5.67h6.81h2.06h5.68h4.96h0h10.05h5.67h0h5.68h1.17h0h2.04h3.64h5.68h0h5.67h5.68h5.68
		h5.67h5.68h6.74h0h5.67h5.68h0h5.68v0v0c1.3,0,2.34-0.38,3.18-0.99c0,0.01-0.01,0.02-0.01,0.03c0.06-0.04,0.1-0.1,0.16-0.14
		c1.3-1,2.13-2.56,2.7-4.12c0.01-0.02,0.02-0.04,0.03-0.07c0.05-0.14,0.1-0.28,0.15-0.43c0.24-0.69,0.45-1.4,0.63-2.13
		C404.49,95.64,404.5,95.63,404.5,95.61"/>
	<path class="st0" d="M409.44,103.5h0.87h5.92h0.95c3.05,0,6.05-0.69,8.6-1.92c2.8,1.24,6.34,1.92,10.42,1.92h4.47h0.14h0.72
		c9.04,0,11.54-6.43,10.16-17.76c-1.32-10.8-2.19-16.1-1.46-17.22c-5.86,1.52-5.35,11.09-4.13,19.06c0.44,2.89,0.63,5.64,0.51,8.02
		c-0.9,0.79-3.2,1.33-5.08,1.32h-0.72h-0.14h-4.47c-1.73,0-2.65,0-4.88,0c0.01-0.02,0.03-0.05,0.05-0.07
		c0.06-0.09,0.12-0.18,0.18-0.27c0.13-0.22,0.25-0.46,0.36-0.7c0.1-0.21,0.2-0.42,0.28-0.63c0.07-0.16,0.13-0.33,0.18-0.5
		c0.3-0.89,0.48-1.83,0.48-2.82c-0.01,0.01-0.02,0.01-0.03,0.02c0.01-0.16,0.03-0.29,0.03-0.45c0-4.11-2.04-8.48-6.73-8.48
		c-2.83,0-6.19,3.27-6.98,7.4c0,0.02,0,0.04-0.01,0.07c-0.07,0.39-0.11,0.78-0.14,1.18c-0.01,0.14-0.01,0.28-0.02,0.42
		c0,0.05-0.01,0.09-0.01,0.14c0,0.07,0.01,0.12,0.01,0.19c0,0.44,0.03,0.87,0.09,1.3c0.01,0.08,0.02,0.16,0.04,0.24
		c0.05,0.33,0.12,0.65,0.21,0.97c0.06,0.21,0.12,0.41,0.19,0.6c0.05,0.15,0.11,0.3,0.17,0.45c0.13,0.31,0.27,0.6,0.42,0.85
		c0.02,0.04,0.04,0.07,0.06,0.11h-4.2h-5.67v0l-1.23,0c-3.72,0-4.58-1.31-4.58-1.31c-0.08,0.46-0.05,0.7-0.23,1.86
		C403.79,100.54,405.08,103.5,409.44,103.5L409.44,103.5z M425.12,88.85c2.53,0,4.55,2.57,5.4,5.19c-1.27,0.97-2.73,1.77-4.3,2.28
		c-2.47-0.82-4.5-2.39-5.81-3.95C421.33,90.45,423.32,88.85,425.12,88.85"/>
	<path class="st0" d="M403.36,78.12c-1.69-0.91-2.08-1.13-2.48-1.35c-0.26-0.15-0.51-0.39-0.45-0.55c-2.52,3.98-2.44,5.88-0.53,6.93
		c0.65,0.36,1.26,0.68,1.82,0.97c0.64,0.33,1.33,0.86,1.22,1.17h0C405.93,80.49,405.23,79.12,403.36,78.12"/>
	<path class="st0" d="M426.82,74.03c-1.69-0.92-2.08-1.13-2.48-1.35c-0.26-0.15-0.51-0.39-0.45-0.55c-2.51,3.99-2.44,5.88-0.52,6.93
		c0.64,0.36,1.26,0.68,1.81,0.97c0.64,0.33,1.33,0.86,1.23,1.17C429.4,76.41,428.69,75.04,426.82,74.03"/>
	<path class="st0" d="M156.03,48.71c2.62,0,6.08-2.27,7.87-6.92c-0.01,0.04,0,0.06-0.01,0.1c0.04-0.11,0.06-0.22,0.1-0.33
		c0.64-1.75,1.04-3.83,1.08-6.24c0.01-0.22,0.02-0.45,0.02-0.67c0-0.07,0-0.15-0.01-0.23c-0.01-0.52-0.03-1.04-0.08-1.54
		c-0.01-0.09-0.01-0.17-0.01-0.25c0,0.02,0,0.03-0.01,0.04c-0.54-5.39-3.08-9.34-4.58-11.79c-1.11,2.31-3.32,3.29-3.32,5.7
		c0,3.26,4.6,5.85,6.28,10.55c-2.5,4.15-6.83,5.14-9.03,5.43c-2.38,0.32-5.34,0.16-7.12-0.43C148.7,45.1,152.12,48.71,156.03,48.71"
		/>
	<path class="st0" d="M122.38,42.04c-1.69-0.91-2.07-1.13-2.48-1.35c-0.26-0.14-0.51-0.39-0.45-0.55c-2.51,3.98-2.44,5.87-0.52,6.92
		c0.65,0.36,1.25,0.68,1.82,0.97c0.63,0.33,1.32,0.85,1.22,1.16C124.95,44.41,124.25,43.04,122.38,42.04"/>
	<path class="st0" d="M113.36,48.02c0.64,0.33,1.32,0.85,1.22,1.16c2.97-4.78,2.27-6.14,0.41-7.15c-1.69-0.91-2.08-1.12-2.48-1.35
		c-0.26-0.15-0.51-0.39-0.44-0.55c-2.51,3.98-2.44,5.87-0.52,6.92C112.2,47.41,112.8,47.73,113.36,48.02"/>
	<path class="st0" d="M10.16,6.92c0.65,0.35,1.25,0.68,1.81,0.96c0.64,0.33,1.33,0.85,1.23,1.17c2.98-4.78,2.27-6.14,0.4-7.15
		c-1.69-0.91-2.07-1.13-2.47-1.35C10.86,0.4,10.61,0.16,10.68,0C8.17,3.98,8.24,5.87,10.16,6.92"/>
	<path class="st0" d="M2.77,6.92C3.41,7.28,4.02,7.6,4.58,7.89C5.22,8.22,5.9,8.74,5.8,9.05C8.78,4.27,8.07,2.91,6.21,1.9
		C4.52,0.99,4.14,0.78,3.73,0.55C3.47,0.4,3.22,0.16,3.29,0C0.77,3.98,0.85,5.87,2.77,6.92"/>
	<path class="st0" d="M11.27,26.4c23.16,27.53,84.81,19.96,109.8,5.96c-0.87,4.4,2.6,5.97,7.26,6.29c0,0,0.71,0.06,1.08,0.06
		c2.11,0.06,4.4-0.09,6.61-0.33c4.7-0.35,9.56-0.87,11.81-1.23c2.46-0.14,1.87-4.99,3.38-6.62c-3.4,0.33-6.02,0.79-8.61,0.79
		c-3.36,0-7.77-1.66-9.5-4.75c1.93-1.69,5.87-3.17,12.42-0.75c0,0-1.85-7.29-6.15-7.78c-2.97-0.34-5.81,2.43-7.08,5.88
		c-1.25,2.75-1.24,7.24,2.3,10.24c-0.58-0.4-1.18-0.73-1.81-1.02c-3.1-1.86-9.98-0.98-11.24-2.67c-0.01,0.01-0.03,0.03-0.04,0.03
		l0.43-5.93c-24.32,15.21-83.59,20.5-106.29-0.9c0,0,0.18-7.66,0.36-12.39v-0.01h-0.02c0.03-0.82,0.05-1.6,0.06-2.18
		c-0.01-0.27,0-0.29-0.02-0.47c-0.06,0.05-0.12,0.19-0.34,0.4c-1.64,1.65-6.06,2.93-5.09,6.46c-2.94,1.74-6.44,2.74-8.62,6.01
		l-0.01-0.01C-3.78,29.91,9.24,37.62,11.27,26.4 M10.62,19.31c0.03,2.05,0.13,4.15,0.47,6.12c-3.39,0.4-5.89-0.04-7.45-1.34
		c-0.31-0.25-0.53-0.53-0.72-0.79C4.15,22.05,8.5,20.59,10.62,19.31"/>
	<path class="st0" d="M173.51,38.87c3.72,0,6.32-0.56,8.1-2.05c-0.01,0.02-0.02,0.04-0.04,0.06c0.05-0.04,0.09-0.1,0.14-0.15
		c0.24-0.21,0.47-0.44,0.69-0.7c0.02-0.02,0.04-0.05,0.06-0.07c0.51-0.63,0.94-1.37,1.28-2.25c0.02-0.05,0.04-0.1,0.05-0.16
		c0.11-0.28,0.2-0.57,0.29-0.87c0.07-0.23,0.13-0.45,0.18-0.68c0.09-0.38,0.18-0.78,0.25-1.2c-0.01,0-0.01,0.01-0.01,0.01
		c0.2-1.4,0.16-2.81-0.17-4.02c-1.69-6.29-4.27-9.75-5.02-10.59c-0.83,1.87-2.88,2.51-2.88,4.69c0,2.89,4.34,6.8,5.78,10.67
		c-3.03,0.65-6.99,0.57-8.25,0.56c-1.21-0.02-4.63,0.22-4.63-3.65C167.05,30.75,166.67,38.87,173.51,38.87"/>
	<path class="st0" d="M184.51,30.81c-0.08,0.46-0.11,0.69-0.3,1.85c-0.48,3.06,2.65,6.02,5.8,6.02h0.21h4.97h0.72h0
		c9.04,0,12.25-6.44,10.87-17.76c-1.32-10.8-2.19-16.1-1.46-17.22c-5.86,1.51-5.35,11.09-4.13,19.06c0.44,2.89,0.63,5.64,0.51,8.02
		c-0.91,0.79-3.91,1.33-5.79,1.32h-0.72h-4.94h-0.85C185.52,32.12,184.51,30.81,184.51,30.81"/>
	<path class="st0" d="M210.79,39.32c4.55-1,7.57-6.42,6.2-17.73c-1.31-10.78-2.22-16.06-1.47-17.26c-4.73,1.32-5.79,7.34-4.1,19.1
		C212.32,29.75,212.42,38.97,210.79,39.32"/>
</g>
</svg>
